HIERARCHY
ROOT root
{
	OFFSET 0.000000 0.000000 0.000000
	CHANNELS 6 Xposition Yposition Zposition Zrotation Yrotation Xrotation
	JOINT lhip
	{
		OFFSET 0.058581 -0.082280 -0.017664
		CHANNELS 3 Zrotation Yrotation Xrotation
		JOINT lknee
		{
			OFFSET 0.043451 -0.386469 0.008037
			CHANNELS 3 Zrotation Yrotation Xrotation
			JOINT lankle
			{
				OFFSET -0.014790 -0.426874 -0.037428
				CHANNELS 3 Zrotation Yrotation Xrotation
				JOINT ltoe
				{
					OFFSET 0.041054 -0.060286 0.122042
					CHANNELS 3 Zrotation Yrotation Xrotation
					End Site
					{
						OFFSET 0.000000 0.000000 0.000000
					}
				}
			}
		}
	}
	JOINT rhip
	{
		OFFSET -0.060310 -0.090513 -0.013543
		CHANNELS 3 Zrotation Yrotation Xrotation
		JOINT rknee
		{
			OFFSET -0.043257 -0.383688 -0.004843
			CHANNELS 3 Zrotation Yrotation Xrotation
			JOINT rankle
			{
				OFFSET 0.019056 -0.420046 -0.034562
				CHANNELS 3 Zrotation Yrotation Xrotation
				JOINT rtoe
				{
					OFFSET -0.034840 -0.062106 0.130323
					CHANNELS 3 Zrotation Yrotation Xrotation
					End Site
					{
						OFFSET 0.000000 0.000000 0.000000
					}
				}
			}
		}
	}
	JOINT lowerback
	{
		OFFSET 0.004439 0.124404 -0.038385
		CHANNELS 3 Zrotation Yrotation Xrotation
		JOINT upperback
		{
			OFFSET 0.004488 0.137956 0.026820
			CHANNELS 3 Zrotation Yrotation Xrotation
			JOINT chest
			{
				OFFSET -0.002265 0.056032 0.002855
				CHANNELS 3 Zrotation Yrotation Xrotation
				JOINT lowerneck
				{
					OFFSET -0.013390 0.211636 -0.033468
					CHANNELS 3 Zrotation Yrotation Xrotation
					JOINT upperneck
					{
						OFFSET 0.010113 0.088937 0.050410
						CHANNELS 3 Zrotation Yrotation Xrotation
						End Site
						{
							OFFSET 0.000000 0.000000 0.000000
						}
					}
				}
				JOINT lclavicle
				{
					OFFSET 0.071702 0.114000 -0.018898
					CHANNELS 3 Zrotation Yrotation Xrotation
					JOINT lshoulder
					{
						OFFSET 0.122921 0.045205 -0.019046
						CHANNELS 3 Zrotation Yrotation Xrotation
						JOINT lelbow
						{
							OFFSET 0.255332 -0.015649 -0.022946
							CHANNELS 3 Zrotation Yrotation Xrotation
							JOINT lwrist
							{
								OFFSET 0.265709 0.012698 -0.007375
								CHANNELS 3 Zrotation Yrotation Xrotation
								End Site
								{
									OFFSET 0.000000 0.000000 0.000000
								}
							}
						}
					}
				}
				JOINT rclavicle
				{
					OFFSET -0.082954 0.112472 -0.023707
					CHANNELS 3 Zrotation Yrotation Xrotation
					JOINT rshoulder
					{
						OFFSET -0.113228 0.046853 -0.008472
						CHANNELS 3 Zrotation Yrotation Xrotation
						JOINT relbow
						{
							OFFSET -0.260127 -0.014369 -0.031269
							CHANNELS 3 Zrotation Yrotation Xrotation
							JOINT rwrist
							{
								OFFSET -0.269108 0.006794 -0.006027
								CHANNELS 3 Zrotation Yrotation Xrotation
								End Site
								{
									OFFSET 0.000000 0.000000 0.000000
								}
							}
						}
					}
				}
			}
		}
	}
}
MOTION
Frames: 17
Frame Time: 0.033333
0.153906 2.566105 0.911144 -172.475727 4.849085 82.226479 9.298212 6.546215 -27.900405 -11.543599 1.949376 54.676755 4.753864 8.762243 -20.712056 0.000000 -0.000000 0.000000 -7.920184 -1.526250 -34.227217 5.370063 3.754757 44.442120 4.886425 -0.325280 -9.811218 0.000000 -0.000000 0.000000 -0.228562 3.420251 34.886784 0.569179 -1.610028 9.107608 0.583136 -1.019612 -9.245765 -15.013654 32.137047 -5.268933 -6.428352 21.363894 -11.458696 -22.386785 -8.962506 -0.221748 -27.672232 -13.556225 9.261983 33.495841 -65.590121 -36.413090 14.819337 -18.671821 -22.792519 27.019465 8.533189 7.114593 39.399865 -1.660798 7.118338 -8.756569 44.187752 -16.662259 -9.926244 18.731806 -27.915389 
0.165131 2.587954 0.922640 -168.531105 5.068103 83.800437 9.606143 5.398527 -27.802106 -11.703678 0.439536 53.121180 4.449477 7.416218 -19.315203 0.000000 -0.000000 0.000000 -8.154966 0.806390 -34.185998 6.606975 7.896086 41.437575 7.299270 2.972956 -5.555595 0.000000 -0.000000 0.000000 0.006812 2.260772 35.296536 0.943415 -2.356120 8.571205 0.674262 -1.295416 -9.693358 -15.743371 31.916782 -5.740826 -6.554728 21.074471 -11.737918 -22.739465 -10.176452 -0.604341 -25.583730 -15.118327 9.310160 40.609556 -68.493142 -41.216334 15.850397 -19.894372 -22.255222 26.743321 8.297903 6.865883 39.554607 -2.308778 7.797567 -7.795004 43.695970 -15.341583 -9.628465 18.271715 -29.239186 
0.178276 2.608488 0.933804 -163.694036 4.713116 85.546616 9.563099 4.047140 -28.747486 -12.144873 -0.988822 52.205457 3.700721 5.751040 -16.973163 0.000000 -0.000000 0.000000 -8.927004 1.459288 -33.989054 6.906372 8.019977 41.338802 7.726686 4.002336 -1.425198 0.000000 -0.000000 0.000000 0.101249 0.876403 35.852412 1.207474 -3.384085 8.423491 0.702288 -1.681723 -10.649889 -16.174734 31.811286 -6.148756 -7.176468 20.256578 -12.350121 -22.613730 -10.581059 -0.996722 -24.861282 -16.468395 9.757318 47.580355 -70.779385 -46.260600 17.211812 -20.571146 -21.039617 26.197223 8.087699 6.820666 40.006262 -2.604994 9.102063 -6.869487 43.551483 -14.383706 -10.183394 18.221616 -30.561289 
0.192992 2.628969 0.941517 -158.479465 3.751645 87.073492 9.316439 2.853138 -29.614704 -13.267177 -2.692388 51.173549 2.731514 4.382230 -14.993433 0.000000 -0.000000 0.000000 -9.751163 1.082261 -32.482242 6.471560 7.463168 41.252245 5.499325 2.753844 -3.501639 0.000000 -0.000000 0.000000 0.425430 -0.160728 36.212881 0.994386 -4.701365 7.670352 0.626587 -2.050683 -10.652790 -16.903414 30.417104 -6.765619 -6.763418 20.301008 -12.702634 -22.549507 -11.505880 -0.488420 -23.340016 -17.414152 9.299534 52.019906 -72.853128 -48.873369 18.641345 -21.226670 -21.199206 25.609228 8.325460 6.645805 40.691144 -3.713415 9.798215 -5.897379 44.149454 -12.784205 -10.039976 18.172865 -31.348599 
0.208020 2.650326 0.945285 -153.508725 2.208545 88.354346 8.896132 2.243071 -29.780874 -14.431031 -4.421104 49.478262 1.706940 2.713978 -14.596160 0.000000 -0.000000 0.000000 -10.178712 -0.522699 -30.400162 5.485590 6.507551 40.277976 3.620820 0.323279 -7.653455 0.000000 -0.000000 0.000000 0.507115 -0.664572 36.272128 0.619604 -5.909063 6.969599 0.652549 -2.436596 -10.449933 -17.417279 29.286531 -7.499704 -6.358377 20.612245 -12.298498 -22.505196 -11.916099 -0.270351 -22.998107 -17.921841 9.407085 54.902578 -74.626047 -51.385891 18.152148 -21.716220 -20.447711 25.001822 8.288116 6.236672 40.992627 -4.796926 10.660202 -4.381367 44.824367 -11.101574 -9.801592 18.484216 -31.605295 
0.224037 2.671017 0.946735 -149.890684 0.768548 89.289536 9.226356 2.455290 -29.899539 -15.671790 -5.598138 48.087161 0.281270 0.839895 -14.052373 0.000000 -0.000000 0.000000 -10.301211 -1.813666 -29.302022 4.941905 5.536105 40.311855 2.314811 -1.222718 -11.568978 0.000000 -0.000000 0.000000 0.494509 -0.399885 36.392089 0.093004 -6.042186 6.022953 0.642696 -2.794226 -9.655497 -17.636845 28.233872 -8.199257 -6.268366 20.281748 -11.765323 -22.471756 -11.933467 -0.540068 -23.286500 -18.433323 10.323294 53.103827 -75.944082 -49.704109 17.757978 -21.780523 -19.705955 24.517630 8.225352 5.473571 40.707154 -5.536522 11.658056 -2.448670 45.151719 -9.197164 -10.050493 18.684148 -31.894568 
0.239232 2.689322 0.948229 -147.344364 -0.332047 89.736849 9.805096 3.016504 -29.597110 -15.716961 -5.801453 46.621551 -1.241440 -0.590408 -13.539942 0.000000 -0.000000 0.000000 -10.424024 -3.023408 -29.519237 4.636973 2.783896 41.932014 1.892612 -2.471308 -12.846114 0.000000 -0.000000 0.000000 0.444993 -0.220861 36.851310 -0.516411 -5.446242 6.337411 0.441615 -2.707184 -9.857008 -17.988975 27.423243 -8.425518 -6.367622 19.738402 -12.493427 -23.036331 -12.021542 -0.792782 -22.988065 -18.151051 11.269382 48.240174 -76.731839 -45.191721 16.998627 -21.957769 -18.884299 24.346100 8.683424 5.231640 39.705889 -5.943456 12.161736 -0.748242 45.309053 -8.123717 -10.298850 18.973056 -31.905094 
0.252848 2.706512 0.948446 -144.537086 -0.674387 90.006250 10.349236 4.151828 -29.500802 -15.121804 -6.013228 45.119824 -2.618264 -0.175482 -13.494855 0.000000 -0.000000 0.000000 -10.231239 -3.509682 -28.786342 5.155527 2.033345 42.499683 1.146307 -2.981550 -14.967893 0.000000 -0.000000 0.000000 1.422681 -0.434597 37.007846 -1.058430 -5.115188 7.182182 0.018243 -2.266908 -10.189987 -18.086995 26.612424 -8.789689 -6.430370 19.162941 -12.575150 -24.627594 -12.333186 -0.848976 -22.069062 -16.965614 11.994435 39.706711 -77.034250 -37.864549 15.995942 -22.107999 -18.205807 24.540112 9.465094 5.455368 38.023411 -6.384417 11.791043 0.398584 45.420087 -8.091566 -10.044990 19.310509 -30.950857 
0.265014 2.721939 0.948053 -141.704452 -1.601953 90.666230 9.957761 4.856084 -29.551512 -14.575886 -5.744773 42.856748 -3.126500 0.651201 -14.527717 0.000000 -0.000000 0.000000 -10.386782 -4.910175 -28.725361 5.208517 -0.173420 43.261592 0.687488 -4.399576 -16.912820 0.000000 -0.000000 0.000000 1.731190 -0.065592 36.814015 -1.410759 -4.947410 7.370967 -0.100311 -2.504461 -10.412084 -17.818526 25.938184 -9.185179 -6.252158 19.711501 -12.011825 -25.409341 -12.308829 0.423546 -22.363878 -15.030645 11.933006 31.142734 -76.247527 -29.913167 14.172735 -22.038292 -17.702610 24.749591 10.137183 5.886018 36.613751 -6.031030 11.344827 0.448395 44.261174 -8.378425 -9.247847 19.724842 -29.481096 
0.275582 2.735905 0.947600 -139.088698 -2.374457 91.275166 9.571325 5.197847 -29.300389 -13.507168 -4.880589 40.091286 -3.103745 2.317077 -15.508296 0.000000 -0.000000 0.000000 -9.980376 -5.555103 -28.825848 4.834028 -0.757723 44.074225 0.318664 -5.757431 -18.419707 0.000000 -0.000000 0.000000 1.669720 0.121153 36.740888 -1.700749 -4.795669 6.664601 -0.157930 -2.229144 -10.002258 -17.687465 25.025978 -9.455085 -6.124804 20.878510 -12.108055 -26.668910 -11.783297 0.728273 -22.555889 -13.039654 12.507290 19.613591 -74.458255 -19.167601 15.545572 -21.449905 -17.467249 24.898637 10.136311 5.669310 35.358351 -5.560991 10.891601 0.262592 43.067139 -8.310488 -10.540496 19.849573 -28.170713 
0.283990 2.748528 0.946642 -136.104184 -2.976660 91.518815 8.991164 5.681203 -29.326373 -11.957838 -3.150826 38.069479 -2.663533 4.675223 -14.807695 0.000000 -0.000000 0.000000 -10.021850 -5.895568 -28.981841 4.542045 -2.053177 45.641649 0.228952 -6.811710 -19.368800 0.000000 -0.000000 0.000000 1.972153 -0.067003 36.719086 -2.084081 -4.717278 6.255677 -0.435804 -1.935546 -9.508340 -17.562349 24.351599 -9.613486 -6.105194 21.407710 -12.746840 -27.383835 -11.317124 0.881868 -23.103693 -10.754837 13.134957 11.555136 -72.001384 -11.813825 15.484209 -21.111620 -17.583136 25.113877 10.006008 5.213229 34.585390 -5.513731 10.034841 -0.888120 42.103275 -10.365984 -11.071063 19.712022 -27.351886 
0.291266 2.759421 0.945691 -132.955832 -3.669969 91.756694 8.186428 5.993199 -29.622668 -10.019338 -0.723302 36.488532 -2.512688 7.169546 -13.892702 0.000000 -0.000000 0.000000 -10.176630 -6.738310 -29.012179 4.242728 -3.246634 46.892736 -0.036188 -7.856065 -20.507704 0.000000 -0.000000 0.000000 2.262497 -0.043782 36.448788 -2.480600 -4.702844 6.345656 -0.656842 -1.906016 -9.272844 -17.468746 23.697019 -10.140374 -5.981980 21.920820 -12.754220 -28.453935 -10.955620 1.258050 -23.147148 -8.594413 13.157388 6.980682 -68.634744 -7.560558 14.591800 -21.235720 -16.684750 25.608023 9.851922 5.037650 34.002597 -5.685254 8.851558 -2.753355 41.254982 -13.899498 -11.296821 19.657614 -27.208280 
0.296594 2.769953 0.944817 -130.126900 -4.128411 91.800537 7.711964 6.771606 -29.775175 -8.272669 1.673685 35.340089 -1.421676 9.529503 -13.918138 0.000000 -0.000000 0.000000 -9.990204 -7.496348 -28.321296 3.809509 -4.231285 47.161918 -0.154032 -9.005206 -21.798395 0.000000 -0.000000 0.000000 2.458562 0.193595 36.197249 -2.829060 -4.511218 6.579191 -0.848477 -1.748970 -9.101176 -17.267617 22.961717 -10.448021 -5.654579 21.993792 -12.838344 -29.869174 -10.353341 1.197216 -22.826058 -6.751212 13.462882 3.656278 -64.837564 -4.348437 15.451974 -20.974182 -16.256856 26.114952 9.505928 4.851952 33.427229 -5.730950 7.961134 -3.945935 40.475117 -16.477519 -13.456354 19.305408 -28.475056 
0.302064 2.779805 0.943885 -128.076984 -4.087623 92.123483 8.053549 6.853199 -29.849029 -6.804829 3.507507 33.995065 -0.161930 10.433454 -11.924013 0.000000 -0.000000 0.000000 -9.133774 -7.584131 -27.978810 3.365632 -5.053458 47.044109 -0.424905 -10.161830 -22.719671 0.000000 -0.000000 0.000000 2.677202 0.866553 35.987181 -3.220512 -3.910166 6.724076 -0.915359 -1.658726 -9.146522 -17.065727 22.395507 -10.597945 -5.763859 21.967829 -13.298651 -30.951040 -9.382609 1.087038 -23.384174 -4.673853 13.333474 3.858142 -61.760271 -5.164346 14.486106 -20.091973 -15.499799 26.066486 9.068324 4.659538 33.563446 -5.227468 7.177259 -5.629802 39.806370 -18.584467 -13.727219 18.949062 -28.246103 
0.304976 2.787462 0.943076 -125.776735 -4.395098 92.290027 7.812396 7.864769 -30.240422 -5.989292 5.139876 33.468675 0.305231 11.291821 -10.378596 0.000000 -0.000000 0.000000 -9.024600 -8.336771 -27.691241 3.044804 -6.065340 47.463141 -0.460745 -10.728837 -23.617477 0.000000 -0.000000 0.000000 2.478929 1.245515 35.832404 -3.602358 -3.592217 6.829206 -0.975101 -1.332716 -9.125877 -16.527581 22.099796 -10.712006 -6.176598 21.621240 -13.349594 -31.601006 -8.256505 0.650191 -24.394769 -2.933201 13.145587 4.724571 -58.542266 -7.184283 13.696465 -19.827596 -14.483129 26.205992 8.783914 4.573195 33.386183 -4.693746 6.521821 -7.007395 39.290087 -20.633477 -13.953644 19.097274 -27.599008 
0.306391 2.793490 0.942739 -123.479914 -4.650692 92.307789 7.712582 8.623529 -30.501058 -5.529063 6.546459 33.468862 0.505728 11.791622 -10.220416 0.000000 -0.000000 0.000000 -9.071267 -8.959424 -27.137446 2.621423 -7.176466 47.638945 -0.612041 -11.337290 -24.300864 0.000000 -0.000000 0.000000 2.329795 1.475107 35.830040 -4.032081 -3.262344 6.994825 -1.160030 -1.087886 -9.131104 -16.154962 21.443854 -10.747302 -6.435299 21.487291 -13.715447 -32.583883 -7.105808 0.547101 -24.774682 -0.975947 12.777801 6.680460 -56.850867 -10.764218 14.071324 -18.774192 -14.299311 26.417455 8.798918 4.562868 33.063484 -4.120876 6.237224 -7.592465 39.166505 -21.905869 -14.760637 19.075986 -27.514828 
0.306862 2.798073 0.942374 -121.082883 -4.738040 92.416614 7.826423 9.190091 -31.111744 -5.218858 8.385285 34.095053 0.756666 12.433944 -9.816384 0.000000 -0.000000 0.000000 -9.046131 -9.819826 -26.701484 2.271029 -8.220488 47.832190 -0.725657 -11.750861 -24.846327 0.000000 -0.000000 0.000000 2.391483 1.735855 35.960182 -4.365802 -2.912579 6.390443 -1.317832 -0.918881 -8.605332 -15.298113 21.160224 -11.058619 -6.439024 21.324710 -13.354711 -33.033630 -5.770516 0.090981 -26.108468 0.239485 12.204573 8.815703 -54.522823 -13.419707 14.605616 -18.573245 -14.728022 26.397270 8.638851 4.559605 33.016865 -3.414578 5.878684 -8.327358 39.342060 -23.011442 -15.064994 19.210020 -27.881142 
